<?xml version="1.0" encoding="utf-8"?>
<!-- Generator: Adobe Illustrator 15.1.0, SVG Export Plug-In . SVG Version: 6.00 Build 0)  -->
<!DOCTYPE svg PUBLIC "-//W3C//DTD SVG 1.1//EN" "http://www.w3.org/Graphics/SVG/1.1/DTD/svg11.dtd">
<svg version="1.1" id="レイヤー_1" xmlns="http://www.w3.org/2000/svg" xmlns:xlink="http://www.w3.org/1999/xlink" x="0px"
	 y="0px" width="44.414px" height="10.797px" viewBox="0 0 44.414 10.797" enable-background="new 0 0 44.414 10.797"
	 xml:space="preserve">
<g>
	<defs>
		<rect id="SVGID_1_" width="44.414" height="10.797"/>
	</defs>
	<clipPath id="SVGID_2_">
		<use xlink:href="#SVGID_1_"  overflow="visible"/>
	</clipPath>
	<path clip-path="url(#SVGID_2_)" fill="#1F1E1D" d="M13.612,7.836c0.073,0,0.135,0.027,0.188,0.079
		c0.053,0.053,0.078,0.117,0.078,0.192s-0.025,0.139-0.077,0.191c-0.052,0.053-0.114,0.079-0.186,0.079
		c-0.075,0-0.138-0.027-0.191-0.08c-0.052-0.054-0.078-0.119-0.078-0.195c0-0.073,0.026-0.137,0.077-0.188
		C13.476,7.862,13.538,7.836,13.612,7.836 M13.403,8.521h0.418v1.666h-0.418V8.521z"/>
	<path clip-path="url(#SVGID_2_)" fill="#1F1E1D" d="M15.96,8.521h0.418v0.171c0.095-0.08,0.18-0.136,0.257-0.167
		c0.077-0.031,0.156-0.047,0.236-0.047c0.165,0,0.306,0.058,0.42,0.173c0.098,0.1,0.146,0.243,0.146,0.435v1.102h-0.414V9.459
		c0-0.2-0.008-0.332-0.026-0.397c-0.017-0.063-0.049-0.114-0.093-0.149c-0.045-0.033-0.099-0.051-0.165-0.051
		c-0.085,0-0.157,0.028-0.217,0.085c-0.061,0.057-0.102,0.136-0.125,0.234c-0.013,0.052-0.019,0.165-0.019,0.338v0.669H15.96V8.521z
		"/>
	<path clip-path="url(#SVGID_2_)" fill="#D1111B" d="M20.099,8.479c0.157,0,0.305,0.039,0.443,0.118
		c0.138,0.078,0.246,0.185,0.324,0.32c0.078,0.134,0.116,0.279,0.116,0.436c0,0.158-0.038,0.305-0.116,0.441
		c-0.08,0.137-0.185,0.243-0.32,0.32c-0.135,0.077-0.283,0.116-0.446,0.116c-0.238,0-0.442-0.085-0.61-0.255
		c-0.17-0.171-0.254-0.377-0.254-0.619c0-0.261,0.095-0.478,0.286-0.649C19.689,8.554,19.881,8.479,20.099,8.479"/>
	<path clip-path="url(#SVGID_2_)" fill="#1F1E1D" d="M24.028,7.879h0.418v2.309h-0.418v-0.176c-0.082,0.078-0.164,0.133-0.246,0.167
		s-0.171,0.052-0.266,0.052c-0.215,0-0.401-0.084-0.559-0.251c-0.156-0.167-0.235-0.374-0.235-0.622
		c0-0.257,0.075-0.468,0.228-0.632c0.152-0.165,0.336-0.247,0.554-0.247c0.1,0,0.193,0.019,0.281,0.057
		c0.087,0.038,0.168,0.096,0.243,0.171V7.879z M23.589,8.864c-0.13,0-0.235,0.046-0.321,0.137C23.183,9.094,23.14,9.21,23.14,9.353
		c0,0.145,0.044,0.263,0.13,0.355c0.087,0.094,0.193,0.14,0.32,0.14c0.132,0,0.24-0.046,0.327-0.137
		c0.086-0.092,0.129-0.212,0.129-0.359c0-0.145-0.043-0.262-0.129-0.353C23.83,8.909,23.722,8.864,23.589,8.864"/>
	<path clip-path="url(#SVGID_2_)" fill="#1F1E1D" d="M28.012,9.476H26.67c0.021,0.118,0.071,0.212,0.155,0.282
		c0.084,0.069,0.192,0.105,0.323,0.105c0.155,0,0.29-0.056,0.401-0.165l0.354,0.166c-0.088,0.125-0.194,0.218-0.316,0.276
		c-0.123,0.06-0.268,0.09-0.436,0.09c-0.262,0-0.475-0.082-0.639-0.247c-0.165-0.165-0.247-0.372-0.247-0.619
		c0-0.255,0.082-0.466,0.246-0.634s0.368-0.252,0.616-0.252c0.262,0,0.477,0.084,0.641,0.252c0.163,0.168,0.245,0.39,0.245,0.665
		L28.012,9.476z M27.595,9.146c-0.027-0.094-0.082-0.169-0.164-0.227c-0.08-0.059-0.175-0.087-0.281-0.087
		c-0.117,0-0.221,0.032-0.308,0.098c-0.056,0.04-0.105,0.112-0.152,0.216H27.595z"/>
	<polygon clip-path="url(#SVGID_2_)" fill="#1F1E1D" points="29.641,8.521 30.069,8.521 30.501,9.566 30.979,8.521 31.407,8.521 
		30.364,10.797 29.932,10.797 30.274,10.063 	"/>
	<path clip-path="url(#SVGID_2_)" fill="#1F1E1D" d="M34.349,8.521h0.418v1.666h-0.418v-0.176c-0.081,0.078-0.163,0.133-0.245,0.167
		s-0.171,0.052-0.266,0.052c-0.215,0-0.402-0.084-0.56-0.251c-0.155-0.167-0.234-0.374-0.234-0.622c0-0.257,0.075-0.468,0.227-0.632
		c0.153-0.165,0.337-0.247,0.554-0.247c0.102,0,0.193,0.019,0.282,0.057c0.087,0.038,0.168,0.096,0.242,0.171V8.521z M33.91,8.864
		c-0.13,0-0.235,0.046-0.321,0.137C33.503,9.094,33.46,9.21,33.46,9.353c0,0.145,0.044,0.263,0.131,0.355
		c0.087,0.094,0.193,0.14,0.32,0.14c0.132,0,0.24-0.046,0.326-0.137c0.087-0.092,0.13-0.212,0.13-0.359
		c0-0.145-0.043-0.262-0.13-0.353C34.151,8.909,34.043,8.864,33.91,8.864"/>
	<rect x="9.176" y="7.936" clip-path="url(#SVGID_2_)" fill="#1F1E1D" width="0.435" height="2.252"/>
	<rect x="10.728" y="7.936" clip-path="url(#SVGID_2_)" fill="#1F1E1D" width="0.433" height="2.252"/>
	<rect x="9.611" y="8.854" clip-path="url(#SVGID_2_)" fill="#1F1E1D" width="1.193" height="0.414"/>
	<path clip-path="url(#SVGID_2_)" d="M10.006,1.122H9.95C9.092,1.126,8.403,1.34,7.903,1.759C7.366,2.198,7.083,2.84,7.058,3.664
		c-0.041,1.211,0.358,1.817,1.22,1.855C8.792,5.538,9.167,5.37,9.438,5.003c0.266-0.364,0.457-0.865,0.566-1.487
		c0.09-0.521,0.125-1.108,0.105-1.745V1.763l0.008,0.001c0.638,0.028,1.1,0.194,1.37,0.494c0.222,0.246,0.338,0.616,0.347,1.099
		c0.012,0.48-0.1,0.84-0.335,1.07c-0.24,0.24-0.677,0.382-1.335,0.432l-0.051,0.004v0.71h0.057c0.432-0.01,0.834-0.078,1.198-0.202
		c0.865-0.296,1.285-0.937,1.285-1.959C12.652,1.871,11.787,1.122,10.006,1.122 M9.338,1.792L9.337,1.803
		C9.317,2.57,9.294,3.029,9.271,3.206c-0.058,0.489-0.171,0.893-0.339,1.2C8.792,4.666,8.6,4.798,8.364,4.798
		c-0.037,0-0.077-0.003-0.115-0.007C8.126,4.775,8.025,4.692,7.945,4.547C7.835,4.346,7.789,4.049,7.81,3.664
		c0.065-1.027,0.576-1.657,1.517-1.87L9.338,1.792z"/>
	<rect x="34.283" y="0.152" clip-path="url(#SVGID_2_)" fill="#1F1E1D" width="0.723" height="2.168"/>
	<path clip-path="url(#SVGID_2_)" fill="#1F1E1D" d="M35.226,6.022c0.204,0.08,0.759,0.198,1.211,0.246v-0.68
		c-0.493-0.107-0.885-0.212-1.16-0.312l-0.193-0.071l0.191-0.077c0.433-0.172,0.757-0.323,0.963-0.446l-0.466-0.442l-0.196,0.106
		c-0.298,0.162-0.653,0.327-1.053,0.489L34.48,4.853l-0.035-0.027c-0.199-0.154-0.382-0.321-0.54-0.494l-0.119-0.131h2.65V3.629
		h-2.841V3.251h-0.856v0.378h-2.757v0.571h2.071l-0.524,0.196c-0.426,0.153-0.946,0.29-1.547,0.407v0.587
		c0.462-0.094,0.89-0.197,1.27-0.309l0.101-0.03v0.573l-0.073,0.004c-0.251,0.015-0.441,0.027-0.571,0.037v0.618l3.106-0.268
		l-0.021-0.593c-0.306,0.039-0.837,0.085-1.575,0.138l-0.084,0.006V4.765l0.046-0.02c0.285-0.125,0.551-0.259,0.788-0.398
		l0.065-0.038l0.041,0.064c0.215,0.339,0.491,0.644,0.814,0.905l0.144,0.114h-0.001C34.351,5.625,34.751,5.837,35.226,6.022"/>
	<path clip-path="url(#SVGID_2_)" fill="#1F1E1D" d="M0,6.381h5.476v-6.21H0V6.381z M4.612,5.596H0.865V0.932h3.747V5.596z"/>
	<path clip-path="url(#SVGID_2_)" fill="#D1111B" d="M4.098,3.223c0-0.75-0.609-1.359-1.36-1.359c-0.75,0-1.36,0.609-1.36,1.359
		c0,0.752,0.61,1.36,1.36,1.36C3.489,4.583,4.098,3.975,4.098,3.223"/>
	<path clip-path="url(#SVGID_2_)" fill="#1F1E1D" d="M23.253,2.958l0.009-1.265V1.85h5.342V1.327V1.131V0.152h-6.14v3.11
		c0,0.512-0.08,1.103-0.235,1.751c-0.088,0.361-0.196,0.69-0.332,0.979h0.813c0.088-0.208,0.172-0.461,0.252-0.751
		C23.155,4.508,23.253,3.741,23.253,2.958 M23.262,0.726h4.551v0.405v0.143h-4.551V0.726z"/>
	<path clip-path="url(#SVGID_2_)" fill="#1F1E1D" d="M26.202,5.694V5.106h2.008V4.528h-2.008V4.234V4.029V3.984l0.073-0.006
		c0.504-0.035,0.924-0.07,1.246-0.105l0.045-0.005l0.16,0.219l0.763-0.239c-0.226-0.29-0.487-0.602-0.782-0.927l-0.118-0.131h0.977
		V2.219h-5.092v0.571h1.051l-0.06,0.114c-0.098,0.184-0.195,0.357-0.289,0.519l-0.023,0.038h-0.044
		c-0.23,0.004-0.411,0.006-0.544,0.006v0.617c0.434-0.002,1-0.02,1.69-0.053l0.082-0.004v0.002v0.205v0.294H23.48v0.578h1.856v0.588
		h-2.394v0.608h5.659V5.694H26.202z M25.116,3.446l-0.146,0.002l0.078-0.123c0.104-0.166,0.209-0.332,0.309-0.498l0.024-0.037h1.32
		l0.023,0.026c0.102,0.116,0.221,0.262,0.366,0.442l0.095,0.118l-0.152,0.009C26.608,3.41,25.964,3.431,25.116,3.446"/>
	<path clip-path="url(#SVGID_2_)" d="M44.413,4.062h-2.968V4.007V3.864V3.75h2.499V1.348h-1.137v-0.43h1.561V0.37h-1.561V0h-0.781
		v0.37h-1.868V0h-0.784v0.37h-1.588v0.548h1.588v0.43h-1.142V3.75h2.378v0.114v0.143v0.055h-2.863v0.554h2.301l-0.704,0.317
		c-0.499,0.233-1.036,0.416-1.597,0.542v0.682c0.655-0.182,1.324-0.394,1.619-0.511c0.312-0.125,0.691-0.32,1.126-0.578l0.118-0.072
		v1.287h0.835v-1.3l0.118,0.069c0.792,0.463,1.981,0.895,2.85,1.129V5.427c-0.5-0.103-0.936-0.217-1.294-0.339
		c-0.314-0.106-0.594-0.215-0.832-0.321l-0.335-0.151h2.461V4.062z M41.384,2.791h1.726v0.525h-1.726V2.791z M43.109,2.32h-1.726
		v-0.5h1.726V2.32z M40.158,0.918h1.868v0.43h-1.868V0.918z M40.656,2.32H39.06v-0.5h1.597V2.32z M39.06,2.791h1.597v0.525H39.06
		V2.791z"/>
	<path clip-path="url(#SVGID_2_)" fill="#1F1E1D" d="M35.661,0.151v2.405c0,0.07-0.024,0.23-0.261,0.23h-0.757v0.616h1.084
		c0.201,0,0.367-0.054,0.508-0.165C36.37,3.13,36.437,3,36.437,2.837V0.151H35.661z"/>
	<polygon clip-path="url(#SVGID_2_)" fill="#1F1E1D" points="17.846,3.151 20.368,3.151 20.368,0.578 19.506,0.578 19.506,2.477 
		17.846,2.477 17.846,0.151 16.95,0.151 16.95,2.477 15.27,2.477 15.27,0.601 14.381,0.601 14.381,3.151 16.95,3.151 16.95,5.597 
		15.243,5.597 15.243,3.58 14.381,3.58 14.381,6.303 20.368,6.303 20.368,3.549 19.506,3.549 19.506,5.597 17.846,5.597 	"/>
	<path clip-path="url(#SVGID_2_)" fill="#1F1E1D" d="M32.452,0h-0.805v0.4h-0.552c0.084-0.172,0.148-0.327,0.179-0.4h-0.688
		c-0.062,0.14-0.268,0.584-0.619,1.029h0.758c0.045-0.07,0.117-0.172,0.185-0.285h0.737v0.444h-0.507h-0.953v0.344h1.46v0.406
		h-1.462v1.245h0.752V2.267h0.71v1.166h0.805V2.267h0.74v0.221c0,0.047-0.016,0.2-0.229,0.2H32.76V3.1h0.513
		c0.167,0,0.305-0.044,0.423-0.132c0.111-0.084,0.166-0.198,0.166-0.351V1.938h-1.409V1.532h1.409V1.188h-1.409V0.774h1.409V0.4
		h-1.409V0z"/>
</g>
</svg>
